<svg id="Layer_1" data-name="Layer 1" xmlns="http://www.w3.org/2000/svg" viewBox="0 0 250 250"><defs><style>.cls-1,.cls-2{fill:#fe5969;}.cls-2{stroke:#fff;stroke-miterlimit:10;stroke-width:5px;}</style></defs><rect class="cls-1" x="-1.21" y="-1.21" width="252.42" height="252.42"/><path class="cls-2" d="M155.11,197H95a11.65,11.65,0,0,1-11.64-11L75.79,58.82h98.42L166.75,186A11.66,11.66,0,0,1,155.11,197Z"/><path class="cls-2" d="M78.4,53h93.2a22.74,22.74,0,0,1,22.74,22.74v0A2.26,2.26,0,0,1,192.09,78H57.91a2.26,2.26,0,0,1-2.26-2.26v0A22.74,22.74,0,0,1,78.4,53Z"/><line class="cls-2" x1="125.3" y1="86.18" x2="125.3" y2="189.08"/><line class="cls-2" x1="150.09" y1="86.29" x2="145.36" y2="189.08"/><line class="cls-2" x1="98.79" y1="86.35" x2="104.57" y2="189.08"/><line class="cls-2" x1="75.79" y1="65.53" x2="173.45" y2="65.53"/></svg>